<svg width="65" height="48" viewBox="0 0 65 48" fill="none" xmlns="http://www.w3.org/2000/svg">
<path d="M47.5862 18.0305C48.709 17.8057 49.8689 17.8544 50.9706 18.1767L60.2152 20.8663C62.5032 21.5353 64.8758 19.8885 64.9947 17.4536C64.9974 17.3858 65 17.3208 65 17.2531C65 16.0587 64.4769 14.9915 63.6525 14.2765C63.4755 14.1221 63.3091 13.9569 63.1479 13.7835L52.4687 2.32118C52.1807 2.01241 51.9139 1.68198 51.6391 1.35696C50.9416 0.525449 49.9059 0 48.754 0C47.7024 0 46.7539 0.436068 46.067 1.13757C45.8952 1.31362 45.7182 1.48426 45.5333 1.64677L36.0166 10.0783C35.7207 10.341 35.3904 10.5604 35.0311 10.7202C35.01 10.7284 34.9888 10.7392 34.9677 10.7473C34.1724 11.0913 33.3349 11.2538 32.5 11.2457C31.6651 11.2511 30.8276 11.0913 30.0323 10.7473C30.0112 10.7392 29.9874 10.7284 29.9689 10.7202C29.6096 10.5604 29.2793 10.341 28.9834 10.0783L19.4667 1.64677C19.2818 1.48426 19.1047 1.31633 18.933 1.13757C18.2461 0.43336 17.2976 0 16.246 0C15.0941 0 14.0584 0.525449 13.3609 1.35696C13.0888 1.68198 12.8219 2.01241 12.5313 2.32118L1.85209 13.7835C1.69092 13.9569 1.52447 14.1221 1.34745 14.2765C0.52313 14.9915 0 16.0587 0 17.2531C0 17.3208 0.00263916 17.3858 0.00528122 17.4536C0.124174 19.8885 2.49674 21.5353 4.78477 20.8663L14.0293 18.1767C15.1311 17.8571 16.291 17.8057 17.4138 18.0305C17.892 18.1253 18.357 18.2715 18.8062 18.4611L31.2556 23.7562H31.3005C31.6545 23.8917 32.0323 23.9702 32.4287 23.9919V24C32.4524 24 32.4762 23.9973 32.5026 23.9946C32.5264 23.9946 32.5502 23.9973 32.5766 24V23.9919C32.9703 23.9702 33.3507 23.8917 33.7048 23.7562H33.7497L46.1991 18.4611C46.6429 18.2715 47.1079 18.128 47.5862 18.0305Z" fill="#FE0000"/>
<path d="M8.40083 39V31.3636H10.4193V32.7109H10.5088C10.6679 32.2635 10.933 31.9105 11.3042 31.652C11.6755 31.3935 12.1196 31.2642 12.6366 31.2642C13.1603 31.2642 13.6061 31.3951 13.974 31.657C14.3419 31.9155 14.5872 32.2668 14.7098 32.7109H14.7893C14.9451 32.2734 15.2268 31.9238 15.6345 31.6619C16.0455 31.3968 16.531 31.2642 17.0912 31.2642C17.8038 31.2642 18.3821 31.4912 18.8263 31.9453C19.2737 32.3961 19.4974 33.0357 19.4974 33.8643V39H17.3845V34.282C17.3845 33.8577 17.2718 33.5395 17.0464 33.3274C16.8211 33.1153 16.5393 33.0092 16.2013 33.0092C15.8168 33.0092 15.5168 33.1319 15.3014 33.3771C15.086 33.6191 14.9782 33.9389 14.9782 34.3366V39H12.925V34.2372C12.925 33.8627 12.8173 33.5644 12.6018 33.3423C12.3897 33.1203 12.1096 33.0092 11.7616 33.0092C11.5263 33.0092 11.3142 33.0689 11.1253 33.1882C10.9397 33.3042 10.7922 33.4683 10.6828 33.6804C10.5734 33.8892 10.5187 34.1345 10.5187 34.4162V39H8.40083ZM23.3479 39.1442C22.8607 39.1442 22.4265 39.0597 22.0454 38.8906C21.6642 38.7183 21.3626 38.4647 21.1405 38.13C20.9218 37.7919 20.8124 37.371 20.8124 36.8672C20.8124 36.4429 20.8903 36.0866 21.0461 35.7983C21.2019 35.5099 21.414 35.2779 21.6824 35.1023C21.9509 34.9266 22.2558 34.794 22.5972 34.7045C22.9419 34.6151 23.3032 34.5521 23.681 34.5156C24.1251 34.4692 24.4831 34.4261 24.7549 34.3864C25.0267 34.3433 25.2239 34.2803 25.3465 34.1974C25.4691 34.1146 25.5305 33.992 25.5305 33.8295V33.7997C25.5305 33.4848 25.431 33.2412 25.2322 33.0689C25.0366 32.8965 24.7582 32.8104 24.3969 32.8104C24.0158 32.8104 23.7125 32.8949 23.4871 33.0639C23.2617 33.2296 23.1126 33.4384 23.0397 33.6903L21.0809 33.5312C21.1803 33.0672 21.3759 32.6662 21.6675 32.3281C21.9592 31.9867 22.3354 31.7249 22.7961 31.5426C23.2601 31.357 23.797 31.2642 24.4069 31.2642C24.8311 31.2642 25.2371 31.3139 25.6249 31.4134C26.016 31.5128 26.3624 31.6669 26.664 31.8757C26.9689 32.0845 27.2092 32.353 27.3849 32.6811C27.5605 33.0059 27.6483 33.3954 27.6483 33.8494V39H25.6398V37.9411H25.5802C25.4575 38.1797 25.2935 38.3902 25.088 38.5724C24.8825 38.7514 24.6356 38.8923 24.3472 38.995C24.0589 39.0945 23.7258 39.1442 23.3479 39.1442ZM23.9545 37.6825C24.266 37.6825 24.5411 37.6212 24.7797 37.4986C25.0184 37.3726 25.2056 37.2036 25.3415 36.9915C25.4774 36.7794 25.5454 36.5391 25.5454 36.2706V35.4602C25.4791 35.5033 25.3879 35.5431 25.2719 35.5795C25.1592 35.6127 25.0316 35.6442 24.8891 35.674C24.7466 35.7005 24.6041 35.7254 24.4616 35.7486C24.319 35.7685 24.1898 35.7867 24.0738 35.8033C23.8252 35.8397 23.6081 35.8977 23.4225 35.9773C23.2369 36.0568 23.0927 36.1645 22.99 36.3004C22.8872 36.433 22.8358 36.5987 22.8358 36.7976C22.8358 37.0859 22.9403 37.3063 23.1491 37.4588C23.3612 37.608 23.6296 37.6825 23.9545 37.6825ZM33.398 31.3636V32.9545H28.6849V31.3636H33.398ZM29.7638 39V30.8118C29.7638 30.2583 29.8715 29.7992 30.0869 29.4347C30.3057 29.0701 30.604 28.7966 30.9818 28.6143C31.3596 28.4321 31.7889 28.3409 32.2694 28.3409C32.5943 28.3409 32.8909 28.3658 33.1594 28.4155C33.4311 28.4652 33.6333 28.5099 33.7659 28.5497L33.3881 30.1406C33.3052 30.1141 33.2024 30.0893 33.0798 30.0661C32.9605 30.0429 32.8379 30.0312 32.7119 30.0312C32.4004 30.0312 32.1833 30.1042 32.0606 30.25C31.938 30.3925 31.8767 30.593 31.8767 30.8516V39H29.7638ZM36.596 39.1442C36.1088 39.1442 35.6746 39.0597 35.2934 38.8906C34.9123 38.7183 34.6106 38.4647 34.3886 38.13C34.1698 37.7919 34.0605 37.371 34.0605 36.8672C34.0605 36.4429 34.1383 36.0866 34.2941 35.7983C34.4499 35.5099 34.662 35.2779 34.9305 35.1023C35.199 34.9266 35.5039 34.794 35.8453 34.7045C36.19 34.6151 36.5512 34.5521 36.9291 34.5156C37.3732 34.4692 37.7311 34.4261 38.0029 34.3864C38.2747 34.3433 38.4719 34.2803 38.5945 34.1974C38.7172 34.1146 38.7785 33.992 38.7785 33.8295V33.7997C38.7785 33.4848 38.6791 33.2412 38.4802 33.0689C38.2847 32.8965 38.0062 32.8104 37.645 32.8104C37.2638 32.8104 36.9606 32.8949 36.7352 33.0639C36.5098 33.2296 36.3606 33.4384 36.2877 33.6903L34.3289 33.5312C34.4284 33.0672 34.6239 32.6662 34.9156 32.3281C35.2072 31.9867 35.5834 31.7249 36.0441 31.5426C36.5081 31.357 37.0451 31.2642 37.6549 31.2642C38.0792 31.2642 38.4852 31.3139 38.873 31.4134C39.2641 31.5128 39.6104 31.6669 39.912 31.8757C40.2169 32.0845 40.4572 32.353 40.6329 32.6811C40.8086 33.0059 40.8964 33.3954 40.8964 33.8494V39H38.8879V37.9411H38.8282C38.7056 38.1797 38.5415 38.3902 38.336 38.5724C38.1305 38.7514 37.8836 38.8923 37.5953 38.995C37.3069 39.0945 36.9738 39.1442 36.596 39.1442ZM37.2025 37.6825C37.5141 37.6825 37.7892 37.6212 38.0278 37.4986C38.2664 37.3726 38.4537 37.2036 38.5896 36.9915C38.7255 36.7794 38.7934 36.5391 38.7934 36.2706V35.4602C38.7271 35.5033 38.636 35.5431 38.52 35.5795C38.4073 35.6127 38.2797 35.6442 38.1372 35.674C37.9946 35.7005 37.8521 35.7254 37.7096 35.7486C37.5671 35.7685 37.4378 35.7867 37.3218 35.8033C37.0732 35.8397 36.8561 35.8977 36.6705 35.9773C36.4849 36.0568 36.3408 36.1645 36.238 36.3004C36.1353 36.433 36.0839 36.5987 36.0839 36.7976C36.0839 37.0859 36.1883 37.3063 36.3971 37.4588C36.6092 37.608 36.8777 37.6825 37.2025 37.6825ZM44.6574 28.8182V39H42.5395V28.8182H44.6574ZM46.354 39V31.3636H48.4719V39H46.354ZM47.4179 30.3793C47.103 30.3793 46.8329 30.2749 46.6075 30.0661C46.3854 29.8539 46.2744 29.6004 46.2744 29.3054C46.2744 29.0137 46.3854 28.7635 46.6075 28.5547C46.8329 28.3426 47.103 28.2365 47.4179 28.2365C47.7327 28.2365 48.0012 28.3426 48.2233 28.5547C48.4487 28.7635 48.5613 29.0137 48.5613 29.3054C48.5613 29.6004 48.4487 29.8539 48.2233 30.0661C48.0012 30.2749 47.7327 30.3793 47.4179 30.3793ZM52.346 39.1442C51.8588 39.1442 51.4246 39.0597 51.0434 38.8906C50.6623 38.7183 50.3606 38.4647 50.1386 38.13C49.9198 37.7919 49.8105 37.371 49.8105 36.8672C49.8105 36.4429 49.8883 36.0866 50.0441 35.7983C50.1999 35.5099 50.412 35.2779 50.6805 35.1023C50.949 34.9266 51.2539 34.794 51.5953 34.7045C51.94 34.6151 52.3012 34.5521 52.6791 34.5156C53.1232 34.4692 53.4811 34.4261 53.7529 34.3864C54.0247 34.3433 54.2219 34.2803 54.3445 34.1974C54.4672 34.1146 54.5285 33.992 54.5285 33.8295V33.7997C54.5285 33.4848 54.4291 33.2412 54.2302 33.0689C54.0347 32.8965 53.7562 32.8104 53.395 32.8104C53.0138 32.8104 52.7106 32.8949 52.4852 33.0639C52.2598 33.2296 52.1106 33.4384 52.0377 33.6903L50.0789 33.5312C50.1784 33.0672 50.3739 32.6662 50.6656 32.3281C50.9572 31.9867 51.3334 31.7249 51.7941 31.5426C52.2581 31.357 52.7951 31.2642 53.4049 31.2642C53.8292 31.2642 54.2352 31.3139 54.623 31.4134C55.0141 31.5128 55.3604 31.6669 55.662 31.8757C55.9669 32.0845 56.2072 32.353 56.3829 32.6811C56.5586 33.0059 56.6464 33.3954 56.6464 33.8494V39H54.6379V37.9411H54.5782C54.4556 38.1797 54.2915 38.3902 54.086 38.5724C53.8805 38.7514 53.6336 38.8923 53.3453 38.995C53.0569 39.0945 52.7238 39.1442 52.346 39.1442ZM52.9525 37.6825C53.2641 37.6825 53.5392 37.6212 53.7778 37.4986C54.0164 37.3726 54.2037 37.2036 54.3396 36.9915C54.4755 36.7794 54.5434 36.5391 54.5434 36.2706V35.4602C54.4771 35.5033 54.386 35.5431 54.27 35.5795C54.1573 35.6127 54.0297 35.6442 53.8872 35.674C53.7446 35.7005 53.6021 35.7254 53.4596 35.7486C53.3171 35.7685 53.1878 35.7867 53.0718 35.8033C52.8232 35.8397 52.6061 35.8977 52.4205 35.9773C52.2349 36.0568 52.0908 36.1645 51.988 36.3004C51.8853 36.433 51.8339 36.5987 51.8339 36.7976C51.8339 37.0859 51.9383 37.3063 52.1471 37.4588C52.3592 37.608 52.6277 37.6825 52.9525 37.6825Z" fill="#FE0000"/>
<path d="M7.57497 45.212L6.77697 42.8H7.47897L7.92897 44.342H7.94097L8.39097 42.8H9.03297L8.23497 45.212V47H7.57497V45.212ZM10.6588 47.06C10.3348 47.06 10.0868 46.968 9.91483 46.784C9.74283 46.6 9.65683 46.34 9.65683 46.004V43.796C9.65683 43.46 9.74283 43.2 9.91483 43.016C10.0868 42.832 10.3348 42.74 10.6588 42.74C10.9828 42.74 11.2308 42.832 11.4028 43.016C11.5748 43.2 11.6608 43.46 11.6608 43.796V46.004C11.6608 46.34 11.5748 46.6 11.4028 46.784C11.2308 46.968 10.9828 47.06 10.6588 47.06ZM10.6588 46.46C10.8868 46.46 11.0008 46.322 11.0008 46.046V43.754C11.0008 43.478 10.8868 43.34 10.6588 43.34C10.4308 43.34 10.3168 43.478 10.3168 43.754V46.046C10.3168 46.322 10.4308 46.46 10.6588 46.46ZM13.5472 47.06C13.2272 47.06 12.9832 46.97 12.8152 46.79C12.6472 46.606 12.5632 46.344 12.5632 46.004V42.8H13.2232V46.052C13.2232 46.196 13.2512 46.3 13.3072 46.364C13.3672 46.428 13.4512 46.46 13.5592 46.46C13.6672 46.46 13.7492 46.428 13.8052 46.364C13.8652 46.3 13.8952 46.196 13.8952 46.052V42.8H14.5312V46.004C14.5312 46.344 14.4472 46.606 14.2792 46.79C14.1112 46.97 13.8672 47.06 13.5472 47.06ZM15.4812 42.8H16.4592C16.7992 42.8 17.0472 42.88 17.2032 43.04C17.3592 43.196 17.4372 43.438 17.4372 43.766V44.024C17.4372 44.46 17.2932 44.736 17.0052 44.852V44.864C17.1652 44.912 17.2772 45.01 17.3412 45.158C17.4092 45.306 17.4432 45.504 17.4432 45.752V46.49C17.4432 46.61 17.4472 46.708 17.4552 46.784C17.4632 46.856 17.4832 46.928 17.5152 47H16.8432C16.8192 46.932 16.8032 46.868 16.7952 46.808C16.7872 46.748 16.7832 46.64 16.7832 46.484V45.716C16.7832 45.524 16.7512 45.39 16.6872 45.314C16.6272 45.238 16.5212 45.2 16.3692 45.2H16.1412V47H15.4812V42.8ZM16.3812 44.6C16.5132 44.6 16.6112 44.566 16.6752 44.498C16.7432 44.43 16.7772 44.316 16.7772 44.156V43.832C16.7772 43.68 16.7492 43.57 16.6932 43.502C16.6412 43.434 16.5572 43.4 16.4412 43.4H16.1412V44.6H16.3812ZM20.7581 47.06C20.4381 47.06 20.1941 46.97 20.0261 46.79C19.8581 46.606 19.7741 46.344 19.7741 46.004V43.796C19.7741 43.456 19.8581 43.196 20.0261 43.016C20.1941 42.832 20.4381 42.74 20.7581 42.74C21.0781 42.74 21.3221 42.832 21.4901 43.016C21.6581 43.196 21.7421 43.456 21.7421 43.796V44.156H21.1181V43.754C21.1181 43.478 21.0041 43.34 20.7761 43.34C20.5481 43.34 20.4341 43.478 20.4341 43.754V46.052C20.4341 46.324 20.5481 46.46 20.7761 46.46C21.0041 46.46 21.1181 46.324 21.1181 46.052V45.23H20.7881V44.63H21.7421V46.004C21.7421 46.344 21.6581 46.606 21.4901 46.79C21.3221 46.97 21.0781 47.06 20.7581 47.06ZM22.6458 42.8H23.6238C23.9638 42.8 24.2118 42.88 24.3678 43.04C24.5238 43.196 24.6018 43.438 24.6018 43.766V44.024C24.6018 44.46 24.4578 44.736 24.1698 44.852V44.864C24.3298 44.912 24.4418 45.01 24.5058 45.158C24.5738 45.306 24.6078 45.504 24.6078 45.752V46.49C24.6078 46.61 24.6118 46.708 24.6198 46.784C24.6278 46.856 24.6478 46.928 24.6798 47H24.0078C23.9838 46.932 23.9678 46.868 23.9598 46.808C23.9518 46.748 23.9478 46.64 23.9478 46.484V45.716C23.9478 45.524 23.9158 45.39 23.8518 45.314C23.7918 45.238 23.6858 45.2 23.5338 45.2H23.3058V47H22.6458V42.8ZM23.5458 44.6C23.6778 44.6 23.7758 44.566 23.8398 44.498C23.9078 44.43 23.9418 44.316 23.9418 44.156V43.832C23.9418 43.68 23.9138 43.57 23.8578 43.502C23.8058 43.434 23.7218 43.4 23.6058 43.4H23.3058V44.6H23.5458ZM26.4998 47.06C26.1758 47.06 25.9278 46.968 25.7558 46.784C25.5838 46.6 25.4978 46.34 25.4978 46.004V43.796C25.4978 43.46 25.5838 43.2 25.7558 43.016C25.9278 42.832 26.1758 42.74 26.4998 42.74C26.8238 42.74 27.0718 42.832 27.2438 43.016C27.4158 43.2 27.5018 43.46 27.5018 43.796V46.004C27.5018 46.34 27.4158 46.6 27.2438 46.784C27.0718 46.968 26.8238 47.06 26.4998 47.06ZM26.4998 46.46C26.7278 46.46 26.8418 46.322 26.8418 46.046V43.754C26.8418 43.478 26.7278 43.34 26.4998 43.34C26.2718 43.34 26.1578 43.478 26.1578 43.754V46.046C26.1578 46.322 26.2718 46.46 26.4998 46.46ZM28.2721 42.8H28.9081L29.2021 46.028H29.2141L29.5261 42.8H30.2461L30.5581 46.028H30.5701L30.8641 42.8H31.4341L31.0081 47H30.1861L29.8861 44.168H29.8741L29.5741 47H28.6981L28.2721 42.8ZM32.7874 43.4H32.0974V42.8H34.1374V43.4H33.4474V47H32.7874V43.4ZM34.9369 42.8H35.5969V44.51H36.3049V42.8H36.9649V47H36.3049V45.11H35.5969V47H34.9369V42.8ZM39.3774 42.8H40.3494C40.6774 42.8 40.9234 42.888 41.0874 43.064C41.2514 43.24 41.3334 43.498 41.3334 43.838V44.252C41.3334 44.592 41.2514 44.85 41.0874 45.026C40.9234 45.202 40.6774 45.29 40.3494 45.29H40.0374V47H39.3774V42.8ZM40.3494 44.69C40.4574 44.69 40.5374 44.66 40.5894 44.6C40.6454 44.54 40.6734 44.438 40.6734 44.294V43.796C40.6734 43.652 40.6454 43.55 40.5894 43.49C40.5374 43.43 40.4574 43.4 40.3494 43.4H40.0374V44.69H40.3494ZM42.4709 42.8H43.3649L44.0489 47H43.3889L43.2689 46.166V46.178H42.5189L42.3989 47H41.7869L42.4709 42.8ZM43.1909 45.608L42.8969 43.532H42.8849L42.5969 45.608H43.1909ZM44.8491 42.8H45.8271C46.1671 42.8 46.4151 42.88 46.5711 43.04C46.7271 43.196 46.8051 43.438 46.8051 43.766V44.024C46.8051 44.46 46.6611 44.736 46.3731 44.852V44.864C46.5331 44.912 46.6451 45.01 46.7091 45.158C46.7771 45.306 46.8111 45.504 46.8111 45.752V46.49C46.8111 46.61 46.8151 46.708 46.8231 46.784C46.8311 46.856 46.8511 46.928 46.8831 47H46.2111C46.1871 46.932 46.1711 46.868 46.1631 46.808C46.1551 46.748 46.1511 46.64 46.1511 46.484V45.716C46.1511 45.524 46.1191 45.39 46.0551 45.314C45.9951 45.238 45.8891 45.2 45.7371 45.2H45.5091V47H44.8491V42.8ZM45.7491 44.6C45.8811 44.6 45.9791 44.566 46.0431 44.498C46.1111 44.43 46.1451 44.316 46.1451 44.156V43.832C46.1451 43.68 46.1171 43.57 46.0611 43.502C46.0091 43.434 45.9251 43.4 45.8091 43.4H45.5091V44.6H45.7491ZM48.2533 43.4H47.5633V42.8H49.6033V43.4H48.9133V47H48.2533V43.4ZM50.4029 42.8H51.2309L51.8729 45.314H51.8849V42.8H52.4729V47H51.7949L51.0029 43.934H50.9909V47H50.4029V42.8ZM53.4434 42.8H55.2434V43.4H54.1034V44.51H55.0094V45.11H54.1034V46.4H55.2434V47H53.4434V42.8ZM56.1031 42.8H57.0811C57.4211 42.8 57.6691 42.88 57.8251 43.04C57.9811 43.196 58.0591 43.438 58.0591 43.766V44.024C58.0591 44.46 57.9151 44.736 57.6271 44.852V44.864C57.7871 44.912 57.8991 45.01 57.9631 45.158C58.0311 45.306 58.0651 45.504 58.0651 45.752V46.49C58.0651 46.61 58.0691 46.708 58.0771 46.784C58.0851 46.856 58.1051 46.928 58.1371 47H57.4651C57.4411 46.932 57.4251 46.868 57.4171 46.808C57.4091 46.748 57.4051 46.64 57.4051 46.484V45.716C57.4051 45.524 57.3731 45.39 57.3091 45.314C57.2491 45.238 57.1431 45.2 56.9911 45.2H56.7631V47H56.1031V42.8ZM57.0031 44.6C57.1351 44.6 57.2331 44.566 57.2971 44.498C57.3651 44.43 57.3991 44.316 57.3991 44.156V43.832C57.3991 43.68 57.3711 43.57 57.3151 43.502C57.2631 43.434 57.1791 43.4 57.0631 43.4H56.7631V44.6H57.0031Z" fill="#FE0000"/>
</svg>
